<?xml version="1.0" encoding="utf-8"?>
<!-- Generator: Adobe Illustrator 21.1.0, SVG Export Plug-In . SVG Version: 6.00 Build 0)  -->
<svg version="1.1" id="Layer_1" xmlns="http://www.w3.org/2000/svg" xmlns:xlink="http://www.w3.org/1999/xlink" x="0px" y="0px"
	 viewBox="0 0 506.4 385.6" style="enable-background:new 0 0 506.4 385.6;" xml:space="preserve">
<style type="text/css">
	.st0{fill:#828282;}
</style>
<g id="Layer_1_1_">
	<g>
		<path class="st0" d="M110.3,6.1h84.2v236c0,106.4-51,143.5-132.4,143.5c-19.9,0-45.4-3.3-62.1-8.9l9.4-68.1
			c11.6,3.9,26.6,6.6,43.2,6.6c35.5,0,57.6-16.1,57.6-73.7V6.1z"/>
		<path class="st0" d="M267.6,293.1c22.2,11.6,57.6,23.3,93.6,23.3c38.8,0,59.3-16.1,59.3-41c0-22.7-17.7-36.6-62.6-52.1
			c-62.1-22.2-103-56.5-103-111.4C254.8,48.2,308.6,0,396.1,0c42.7,0,73.1,8.3,95.3,18.8l-18.8,67.6C458.2,79.2,431,68.7,395,68.7
			c-36.6,0-54.3,17.2-54.3,36c0,23.8,20.5,34.3,69.3,53.2c65.9,24.4,96.4,58.7,96.4,111.9c0,62.6-47.6,115.8-150.1,115.8
			c-42.7,0-84.8-11.6-105.8-23.3L267.6,293.1z"/>
	</g>
</g>
</svg>
